<svg width="46" height="41" viewBox="0 0 46 41" fill="none" xmlns="http://www.w3.org/2000/svg">
<path d="M0.731249 41C0.63248 40.9999 0.53474 40.9819 0.443941 40.9472C0.353143 40.9124 0.271154 40.8615 0.202902 40.7977C0.13465 40.7338 0.0815357 40.6583 0.0467857 40.5756C0.0120357 40.4929 -0.00362563 40.4048 0.000704609 40.3165C0.0190445 39.8695 0.48822 29.3193 3.83831 26.323C5.50601 24.8354 7.76519 24 10.1205 24C12.4758 24 14.735 24.8354 16.4027 26.323C18.066 27.8148 19 29.8357 19 31.9425C19 34.0494 18.066 36.0702 16.4027 37.5621C13.0541 40.5571 1.25851 40.9795 0.757218 40.9945L0.731249 41ZM10.1136 25.3128C9.13901 25.3113 8.17366 25.482 7.27301 25.8151C6.37236 26.1482 5.55413 26.6371 4.86534 27.2539C2.60036 29.2811 1.70785 36.3264 1.49388 39.659C5.21841 39.4676 13.0969 38.6693 15.3619 36.6421C16.4005 35.7142 17.1078 34.5315 17.3945 33.2437C17.6812 31.956 17.5342 30.6212 16.9723 29.4082C16.4104 28.1952 15.4587 27.1586 14.2378 26.4295C13.0169 25.7005 11.5816 25.3119 10.1136 25.3128Z" fill="#775DBB"/>
<path d="M10.7488 25C10.5991 24.9997 10.4529 24.9593 10.329 24.884C10.2052 24.8088 10.1093 24.7021 10.0537 24.5777C9.99808 24.4533 9.98533 24.3169 10.017 24.1859C10.0487 24.055 10.1234 23.9355 10.2316 23.8429L36.2496 1.64708C37.3438 0.656293 38.8151 0.0708545 40.3701 0.00745612C41.1204 -0.0300658 41.8711 0.074332 42.5732 0.313825C43.2754 0.553318 43.9132 0.922534 44.4452 1.39742C46.627 3.3498 46.4969 6.64586 44.1537 8.74272L41.3826 11.3431C41.2455 11.4718 41.0568 11.5465 40.8581 11.5507C40.6594 11.5549 40.4669 11.4883 40.3231 11.3655C40.1793 11.2428 40.0958 11.0739 40.0911 10.8961C40.0864 10.7183 40.1609 10.5461 40.298 10.4174L43.0801 7.8058C44.8512 6.21949 44.9828 3.77619 43.3841 2.34556C42.997 2.00415 42.5342 1.73904 42.0256 1.56729C41.5171 1.39554 40.974 1.32096 40.4312 1.34833C39.2458 1.39998 38.126 1.85092 37.2965 2.61065L11.2613 24.8177C11.1228 24.9348 10.9394 25 10.7488 25Z" fill="#775DBB"/>
<path d="M17.8253 32C17.6637 32.0003 17.5056 31.9623 17.3706 31.8906C17.2357 31.819 17.1299 31.7169 17.0663 31.5971C17.0028 31.4774 16.9844 31.3451 17.0134 31.217C17.0423 31.0888 17.1175 30.9704 17.2294 30.8764L34.6042 16.1849C34.7575 16.0665 34.9614 16.0003 35.1737 16C35.386 15.9997 35.5902 16.0655 35.7439 16.1835C35.8976 16.3016 35.9891 16.4629 35.9991 16.6339C36.0091 16.8048 35.937 16.9724 35.7977 17.1016L18.4315 31.793C18.3536 31.8593 18.2595 31.9119 18.1552 31.9475C18.0508 31.9831 17.9386 32.001 17.8253 32Z" fill="#775DBB"/>
<path d="M24.1758 27C24.0676 27.0003 23.9604 26.9834 23.8605 26.9503C23.7605 26.9172 23.6698 26.8685 23.5936 26.8071L15.2217 20.1103C15.0758 19.9852 14.9964 19.8196 15.0001 19.6486C15.0038 19.4775 15.0904 19.3143 15.2416 19.1933C15.3928 19.0723 15.5968 19.0031 15.8106 19.0001C16.0244 18.9971 16.2313 19.0607 16.3877 19.1774L24.7596 25.8742C24.8746 25.9666 24.9528 26.0842 24.9844 26.2121C25.0159 26.34 24.9995 26.4725 24.937 26.5929C24.8746 26.7133 24.7689 26.8163 24.6334 26.8887C24.498 26.9612 24.3387 26.9999 24.1758 27Z" fill="#775DBB"/>
</svg>
