<svg width="49" height="47" viewBox="0 0 49 47" fill="none" xmlns="http://www.w3.org/2000/svg">
<path d="M30.5469 47C28.1613 47 26.0933 46.2344 24.5901 44.7643C22.0498 42.2838 20.9615 36.8802 22.2126 32.9623C23.1253 30.103 25.1614 28.254 27.9475 27.7567C38.5637 25.8609 46.9268 21.8167 47.0098 21.7762C47.1402 21.7131 47.2854 21.6847 47.4307 21.694C47.576 21.7032 47.7163 21.7497 47.8373 21.8287C47.9583 21.9078 48.0559 22.0166 48.1201 22.1442C48.1844 22.2718 48.2131 22.4138 48.2033 22.5557C48.1634 23.1279 47.1534 36.6495 41.7695 41.9113C39.1222 44.4961 35.91 46.2329 32.7218 46.802C32.0045 46.932 31.2765 46.9983 30.5469 47ZM28.2443 29.3438C25.4869 29.8364 24.2998 31.8383 23.7907 33.4425C22.72 36.796 23.6392 41.5495 25.7582 43.6231C27.3093 45.1385 29.6773 45.7013 32.4251 45.2117C35.2861 44.7019 38.1887 43.1242 40.5998 40.7685C44.6003 36.8599 46.0173 27.3841 46.4194 23.8232C43.603 25.0517 36.6042 27.8518 28.2443 29.3438Z" fill="#775DBB"/>
<path d="M17.3052 46.9991C13.703 46.9991 9.60121 45.1785 6.31694 41.9068C1.0311 36.6492 0.0413081 23.1304 0.00215374 22.5568C-0.0082673 22.4148 0.0192542 22.2726 0.0819919 22.1447C0.14473 22.0167 0.240408 21.9076 0.359284 21.8285C0.478161 21.7493 0.616016 21.7028 0.758781 21.6939C0.901546 21.6849 1.04412 21.7137 1.17204 21.7775C3.60326 22.9228 6.09924 23.9268 8.64739 24.7842C12.312 26.0572 16.0686 27.0509 19.8847 27.7567C20.789 27.9084 21.6534 28.2399 22.4262 28.7313C23.199 29.2227 23.8644 29.864 24.3828 30.6169C24.4486 30.7105 24.5096 30.804 24.5707 30.9006C24.6303 30.9904 24.6713 31.0911 24.6912 31.1969C24.7111 31.3026 24.7097 31.4113 24.6868 31.5164C24.664 31.6216 24.6202 31.7211 24.5581 31.8092C24.4961 31.8973 24.417 31.9722 24.3254 32.0295C24.2339 32.0867 24.1318 32.1251 24.0251 32.1426C23.9184 32.16 23.8093 32.156 23.7042 32.1308C23.5991 32.1057 23.5001 32.0599 23.413 31.9961C23.3259 31.9324 23.2525 31.8519 23.1971 31.7595C23.1486 31.6831 23.1001 31.6036 23.0484 31.535C22.6521 30.9564 22.1412 30.4644 21.5471 30.0892C20.953 29.7139 20.2882 29.4634 19.5934 29.3528C15.6966 28.632 11.8604 27.6175 8.11804 26.318C5.25664 25.3376 3.04988 24.4132 1.75309 23.835C2.1462 27.3951 3.53852 36.8659 7.46335 40.7704C11.4759 44.7654 16.956 46.4224 20.4939 44.7093C20.5902 44.6585 20.6957 44.6274 20.8042 44.6181C20.9127 44.6087 21.022 44.6212 21.1256 44.6548C21.2292 44.6884 21.325 44.7424 21.4071 44.8136C21.4893 44.8848 21.5561 44.9717 21.6038 45.0692C21.6515 45.1667 21.679 45.2728 21.6846 45.381C21.6902 45.4893 21.6738 45.5976 21.6364 45.6994C21.599 45.8013 21.5415 45.8946 21.4671 45.9738C21.3927 46.053 21.303 46.1165 21.2034 46.1605C19.9849 46.7312 18.6518 47.018 17.3052 46.9991Z" fill="#775DBB"/>
<path d="M24.3164 31.9279C24.1742 31.9283 24.0343 31.8915 23.9106 31.8211C23.7868 31.7508 23.6833 31.6494 23.6103 31.5267C23.5388 31.4069 23.4703 31.279 23.4067 31.1464C22.1346 28.6626 21.7116 24.5039 23.4497 21.726C23.8577 21.0581 24.4034 20.4857 25.0499 20.0474C25.6964 19.609 26.4287 19.3149 27.1978 19.1848C32.1695 18.2517 37.0049 16.6945 41.5904 14.5497C41.7203 14.484 41.8654 14.4541 42.0105 14.4631C42.1557 14.4721 42.2959 14.5196 42.4169 14.6009C42.5378 14.6821 42.6352 14.7942 42.6989 14.9256C42.7627 15.057 42.7906 15.2031 42.7799 15.3489C42.764 15.5806 42.3728 21.0739 40.6554 25.7281C40.5752 25.928 40.4206 26.0886 40.2245 26.1758C40.0283 26.2629 39.8062 26.2698 39.6051 26.1948C39.404 26.1199 39.24 25.9691 39.1478 25.7745C39.0556 25.58 39.0425 25.3569 39.1113 25.1528C40.2372 22.1001 40.7715 18.5678 40.9957 16.6499C36.6657 18.547 32.1362 19.9464 27.4935 20.8214C26.9494 20.9094 26.4308 21.1153 25.9737 21.4246C25.5165 21.734 25.1317 22.1395 24.8459 22.6131C23.4815 24.7931 23.7932 28.2902 24.8793 30.4143C24.9302 30.5182 24.9731 30.6029 25.0208 30.6812C25.0965 30.8067 25.1375 30.95 25.1398 31.0967C25.1421 31.2433 25.1054 31.388 25.0337 31.5157C24.962 31.6434 24.8577 31.7497 24.7317 31.8235C24.6056 31.8974 24.4623 31.9362 24.3164 31.9359V31.9279Z" fill="#775DBB"/>
<path d="M23.7191 31.9359C23.5737 31.9357 23.431 31.8878 23.3055 31.7969C23.1799 31.706 23.0759 31.5755 23.0043 31.4186C22.9326 31.2618 22.8958 31.0842 22.8975 30.9039C22.8993 30.7236 22.9395 30.5472 23.0142 30.3925C23.065 30.2881 23.1111 30.1759 23.1587 30.0618C23.2609 29.8266 23.4334 29.6505 23.6392 29.5714C23.845 29.4923 24.0675 29.5164 24.2591 29.6387C24.4506 29.7609 24.5959 29.9715 24.6635 30.2251C24.7312 30.4787 24.7159 30.7551 24.621 30.9949C24.5575 31.1504 24.4923 31.3 24.424 31.4398C24.3512 31.5911 24.248 31.7163 24.1244 31.8032C24.0009 31.8902 23.8612 31.9359 23.7191 31.9359Z" fill="#775DBB"/>
<path d="M8.29559 25.9103C8.12893 25.9099 7.9664 25.8594 7.8298 25.7654C7.69321 25.6715 7.58908 25.5386 7.53149 25.3848C5.83159 20.8724 5.44252 15.5448 5.42519 15.32C5.41554 15.1789 5.44381 15.0378 5.50727 14.9109C5.57072 14.784 5.66708 14.6758 5.78658 14.5972C5.90608 14.5186 6.04454 14.4724 6.18798 14.4632C6.33142 14.4541 6.47478 14.4823 6.60361 14.545C11.1474 16.6231 15.9377 18.1333 20.8629 19.0402C21.6254 19.1669 22.3517 19.4524 22.9929 19.8778C23.6342 20.3031 24.1756 20.8584 24.5809 21.5064C24.6378 21.5958 24.6762 21.6953 24.6941 21.7993C24.7119 21.9033 24.7087 22.0097 24.6847 22.1125C24.6607 22.2152 24.6163 22.3123 24.5542 22.3983C24.4921 22.4842 24.4133 22.5572 24.3225 22.6132C24.2317 22.6692 24.1306 22.707 24.0249 22.7246C23.9192 22.7421 23.811 22.7389 23.7066 22.7153C23.6021 22.6917 23.5034 22.6481 23.4161 22.587C23.3288 22.5258 23.2545 22.4483 23.1976 22.359C22.9135 21.8994 22.5314 21.5059 22.0777 21.2056C21.6241 20.9054 21.1096 20.7055 20.5698 20.6198C15.971 19.7706 11.4842 18.414 7.1944 16.5756C7.41653 18.4357 7.9474 21.8614 9.06123 24.8205C9.10684 24.9422 9.12196 25.0728 9.10531 25.2014C9.08866 25.33 9.04075 25.4528 8.96561 25.5593C8.89047 25.6658 8.79032 25.7528 8.67368 25.8131C8.55704 25.8734 8.42735 25.9051 8.29559 25.9056V25.9103Z" fill="#775DBB"/>
<path d="M17.6245 19.8846C17.4541 19.8842 17.2881 19.8303 17.15 19.7304C17.0118 19.6305 16.9085 19.4897 16.8545 19.3278C16.4633 18.1403 16.2656 16.8973 16.2691 15.6467C16.2691 10.5681 23.1555 0.757545 23.4403 0.343478C23.5152 0.237319 23.6145 0.150715 23.7297 0.0909432C23.8449 0.0311709 23.9726 0 24.1024 0C24.2321 0 24.3599 0.0311709 24.4751 0.0909432C24.5903 0.150715 24.6895 0.237319 24.7644 0.343478C25.0571 0.757545 31.9357 10.5681 31.9357 15.6467C31.9357 15.8622 31.8503 16.0688 31.6983 16.2212C31.5462 16.3736 31.34 16.4591 31.125 16.4591C30.9099 16.4591 30.7038 16.3736 30.5517 16.2212C30.3997 16.0688 30.3143 15.8622 30.3143 15.6467C30.3143 11.9389 25.8255 4.84174 24.1024 2.25539C22.3808 4.84174 17.8905 11.9389 17.8905 15.6467C17.887 16.723 18.0567 17.7928 18.3929 18.8149C18.4332 18.937 18.4441 19.067 18.4246 19.1941C18.4051 19.3212 18.3559 19.4418 18.2809 19.5462C18.206 19.6506 18.1074 19.7357 17.9933 19.7945C17.8792 19.8533 17.7528 19.8842 17.6245 19.8846Z" fill="#775DBB"/>
</svg>
