<svg width="48" height="38" viewBox="0 0 48 38" fill="none" xmlns="http://www.w3.org/2000/svg">
<path d="M21.8124 17.507L46.4196 32.8703C45.1838 34.3919 42.9799 34.7924 41.2719 33.7298L41.2717 33.7297L20.0257 20.5266L20.0255 20.5264L17.4198 18.9054L17.4192 18.905L10.4313 14.5439L10.1105 14.3437L9.83052 14.5978C8.1732 16.1021 5.6623 16.3965 3.6702 15.157L3.67017 15.157C1.26172 13.6586 0.523749 10.4917 2.02205 8.08337C3.52041 5.67492 6.68728 4.93696 9.09565 6.43526L9.09568 6.43528C11.1005 7.68232 11.9435 10.0864 11.3042 12.2482L11.1959 12.6141L11.5204 12.815L18.1655 16.93L18.2536 16.9846L18.3562 16.9996L21.8124 17.507ZM4.58417 13.686C6.18072 14.6795 8.27992 14.1902 9.27327 12.5938C10.2667 10.9973 9.77742 8.89807 8.18106 7.90472C6.58451 6.91125 4.48531 7.40057 3.49196 8.99693C2.49849 10.5935 2.98781 12.6927 4.58417 13.686Z" stroke="#775DBB"/>
<path d="M20.412 16.6895L20.6243 16.7584L20.8175 16.6464L41.6858 4.53939C43.426 3.52982 45.6161 3.99729 46.8039 5.55542L22.4664 19.6757L22.2835 19.7818L22.2322 19.9869C21.9074 21.2835 20.6911 22.1899 19.3222 22.0733C18.6607 22.017 18.0788 21.7218 17.6306 21.2818L17.3589 21.0151L17.0294 21.2062L11.2948 24.5329L10.9654 24.724L11.0618 25.0923C11.633 27.2726 10.7157 29.6496 8.67294 30.8346L8.6729 30.8346C6.21883 32.2584 3.07637 31.4238 1.65382 28.9707C0.231777 26.5177 1.06787 23.3751 3.52193 21.9513C5.55239 20.7734 8.05253 21.1446 9.66217 22.6988L9.93371 22.9609L10.2604 22.7714L16.6275 19.0773L16.8201 18.9656L16.866 18.7477C17.1508 17.3959 18.3914 16.4383 19.7948 16.5579C20.002 16.5755 20.2054 16.6223 20.412 16.6895ZM3.15118 28.1016C4.09428 29.7276 6.1773 30.2809 7.80416 29.3369C9.43082 28.3929 9.98543 26.3098 9.04222 24.6836C8.09911 23.0577 6.0161 22.5043 4.38924 23.4484C2.76258 24.3923 2.20796 26.4755 3.15118 28.1016Z" stroke="#775DBB"/>
<path d="M20.3055 19.6786C20.3055 20.0041 20.0417 20.2679 19.7162 20.2679C19.3908 20.2679 19.127 20.0041 19.127 19.6786C19.127 19.3532 19.3908 19.0894 19.7162 19.0894C20.0417 19.0894 20.3055 19.3532 20.3055 19.6786Z" fill="#775DBB" stroke="#775DBB"/>
</svg>
